<svg id="Capa_1" enable-background="new 0 0 512 512" height="512" viewBox="0 0 512 512" width="512" xmlns="http://www.w3.org/2000/svg"><g><path d="m225.732 496.96h-203.255c-4.132 0-7.492-3.361-7.492-7.492v-358.159c0-4.138-3.354-7.492-7.492-7.492s-7.493 3.354-7.493 7.492v358.159c0 12.394 10.083 22.477 22.477 22.477h203.255c4.138 0 7.492-3.354 7.492-7.492s-3.353-7.493-7.492-7.493z"/><path d="m355.014 20.715h-136.681c-4.434-12.045-16.024-20.659-29.587-20.659s-25.153 8.614-29.587 20.659h-136.682c-12.394 0-22.477 10.082-22.477 22.477v53.808c0 4.138 3.354 7.492 7.492 7.492s7.492-3.354 7.492-7.492v-53.808c0-4.132 3.361-7.492 7.492-7.492h134.754v10.726h-25.136c-9.64 0-17.482 7.843-17.482 17.482v9.916h-57.817c-12.394 0-22.477 10.083-22.477 22.477v286.46c-.01 3.338 1.348 6.485 3.656 8.83l72.017 72.017c2.345 2.309 5.492 3.668 8.83 3.657h201.875c12.394 0 22.477-10.083 22.477-22.477v-348.487c0-12.394-10.083-22.477-22.477-22.477h-57.835v-9.916c0-9.64-7.843-17.482-17.482-17.482h-25.119v-10.727h134.753c4.132 0 7.492 3.361 7.492 7.492v446.276c0 4.132-3.361 7.492-7.492 7.492h-93.274c-4.138 0-7.492 3.354-7.492 7.492s3.354 7.492 7.492 7.492h93.274c12.394 0 22.477-10.083 22.477-22.477v-446.274c.001-12.395-10.083-22.477-22.476-22.477zm-294.712 372.011h46.869c.93 0 1.686.756 1.686 1.686v46.869zm260.394-303.918c4.132 0 7.492 3.361 7.492 7.492v348.487c0 4.132-3.361 7.492-7.492 7.492h-196.854v-57.868c0-9.192-7.479-16.67-16.67-16.67h-57.869v-281.44c0-4.132 3.361-7.492 7.492-7.492h57.818v8.228c0 4.481 2.252 8.599 6.023 11.016l11.066 7.092c4.291 2.75 9.834 2.75 14.122 0l9.595-6.151 9.596 6.151c4.291 2.75 9.833 2.75 14.121 0l9.598-6.151 9.599 6.152c4.29 2.75 9.832 2.749 14.121-.001l9.596-6.151 9.6 6.152c2.144 1.375 4.602 2.061 7.06 2.061 2.456 0 4.915-.687 7.059-2.061l11.068-7.092c3.773-2.416 6.026-6.535 6.026-11.018v-8.228zm-72.82-24.9v29.888c0 1.372-.699 2.649-1.854 3.39l-7.315 4.687-9.6-6.152c-2.144-1.374-4.602-2.061-7.059-2.061-2.458 0-4.917.688-7.062 2.062l-9.595 6.151-9.599-6.152c-4.291-2.749-9.832-2.75-14.12 0l-9.598 6.151-9.597-6.151c-4.291-2.75-9.833-2.749-14.122.001l-9.594 6.15-7.312-4.686c-1.155-.74-1.854-2.018-1.854-3.39v-29.888c0-1.379 1.118-2.497 2.497-2.497h113.284c1.382-.001 2.5 1.117 2.5 2.497zm-75.66-17.482v-14.856c0-9.115 7.415-16.53 16.53-16.53s16.53 7.415 16.53 16.53v14.855h-33.06z"/><path d="m504.508 240.268c-8.604 0-15.605 7.001-15.605 15.606v71.63c0 6.885-5.602 12.487-12.487 12.487h-2.389v-209.267c0-4.786-.872-9.476-2.591-13.938l-9.893-25.701c-3.188-8.282-9.949-14.278-18.155-16.571v-13.159c0-4.138-3.354-7.492-7.492-7.492s-7.492 3.354-7.492 7.492v13.158c-8.207 2.293-14.968 8.289-18.156 16.571l-9.893 25.701c-1.72 4.466-2.591 9.155-2.591 13.938v76.964c0 4.138 3.354 7.492 7.492 7.492s7.492-3.354 7.492-7.492v-6.832h15.656v108.247h-15.656v-64.578c0-4.138-3.354-7.492-7.492-7.492s-7.492 3.354-7.492 7.492v112.496c0 11.036 8.978 20.014 20.015 20.014h36.235c11.037 0 20.015-8.978 20.015-20.014v-2.045h2.389c15.148 0 27.472-12.324 27.472-27.472v-71.63c0-.342.278-.621.62-.621 4.138 0 7.492-3.354 7.492-7.492s-3.356-7.492-7.494-7.492zm-56.95-143.8 9.893 25.703c1.056 2.739 1.59 5.616 1.59 8.553v18.521h-15.655v-58.388c1.627 1.191 3.151 2.959 4.172 5.611zm-33.221 25.702 9.893-25.701c1.021-2.653 2.546-4.421 4.172-5.613v58.39h-15.656v-18.521c0-2.936.536-5.814 1.591-8.555zm-1.591 42.06h46.295v21.642h-46.295zm30.641 36.626h15.655v108.247h-15.655zm15.655 156.164c0 2.774-2.256 5.03-5.03 5.03h-36.235c-2.773 0-5.03-2.256-5.03-5.03v-32.932h46.295z"/><ellipse cx="91.614" cy="163.149" rx="10.975" ry="10.975" transform="matrix(.924 -.383 .383 .924 -55.461 47.478)"/><ellipse cx="91.614" cy="232.141" rx="10.975" ry="10.975" transform="matrix(.924 -.383 .383 .924 -81.863 52.73)"/><ellipse cx="91.614" cy="301.404" rx="10.975" ry="10.975" transform="matrix(.924 -.383 .383 .924 -108.369 58.003)"/><path d="m126.651 163.149c0 4.138 3.354 7.492 7.492 7.492h137.39c4.138 0 7.492-3.354 7.492-7.492s-3.354-7.492-7.492-7.492h-137.39c-4.138 0-7.492 3.354-7.492 7.492z"/><path d="m134.144 205.137h109.575c4.138 0 7.492-3.354 7.492-7.492s-3.354-7.492-7.492-7.492h-109.575c-4.138 0-7.492 3.354-7.492 7.492-.001 4.138 3.353 7.492 7.492 7.492z"/><path d="m271.534 224.649h-137.39c-4.138 0-7.492 3.354-7.492 7.492s3.354 7.492 7.492 7.492h137.39c4.138 0 7.492-3.354 7.492-7.492s-3.354-7.492-7.492-7.492z"/><path d="m271.534 293.641h-137.39c-4.138 0-7.492 3.354-7.492 7.492s3.354 7.492 7.492 7.492h137.39c4.138 0 7.492-3.354 7.492-7.492 0-4.137-3.354-7.492-7.492-7.492z"/><path d="m271.534 328.137h-137.39c-4.138 0-7.492 3.354-7.492 7.492s3.354 7.492 7.492 7.492h137.39c4.138 0 7.492-3.354 7.492-7.492s-3.354-7.492-7.492-7.492z"/><path d="m243.719 362.633h-109.575c-4.138 0-7.492 3.354-7.492 7.492s3.354 7.492 7.492 7.492h109.575c4.138 0 7.492-3.354 7.492-7.492 0-4.137-3.354-7.492-7.492-7.492z"/></g></svg>