<svg id="Capa_1" enable-background="new 0 0 512 512" height="512" viewBox="0 0 512 512" width="512" xmlns="http://www.w3.org/2000/svg"><g><g><path d="m502 129.639h-37.149v-14.066c0-5.523-4.477-10-10-10h-99.319c-5.649-49.919-48.127-88.84-99.532-88.84s-93.883 38.921-99.532 88.84h-99.327c-5.523 0-10 4.477-10 10v14.066h-37.141c-5.523 0-10 4.477-10 10v345.627c0 5.523 4.477 10 10 10h329.188c5.523 0 10-4.477 10-10s-4.477-10-10-10h-73.177v-11.373c18.492-11.912 40.241-18.302 62.242-18.302h126.601c5.523 0 10-4.477 10-10v-285.952h27.146v325.627h-64.17c-5.523 0-10 4.477-10 10s4.477 10 10 10h74.17c5.523 0 10-4.477 10-10v-345.627c0-5.523-4.477-10-10-10zm-57.149 295.944h-116.6c-21.58 0-43.098 5.214-62.24 15.188v-117.911c26.856-2.449 48.801-26.261 48.801-53.268v-31.69c0-26.935 9.63-44.202 24.56-65.372 9.557-13.533 15.027-30.546 16.438-46.958h89.042v300.011zm-195.261-294.467c-2.162-2.983-4.088-6.172-5.724-9.478-4.365-8.822 2.401-19.337 12.133-19.341 9.737 0 16.518 10.51 12.142 19.345-1.636 3.304-3.565 6.494-5.731 9.48-2.389 3.293-4.528 6.721-6.41 10.259-1.868-3.516-3.991-6.923-6.36-10.196-.016-.023-.033-.046-.05-.069zm45.221 115.893v22.584c0 17.835-15.645 33.48-33.48 33.48h-10.66c-17.835 0-33.48-15.645-33.48-33.48v-22.584zm-38.811-210.276c44.21 0 80.178 35.968 80.178 80.178 0 15.835-4.62 31.157-13.36 44.308-13.623 20.504-25.583 40.685-27.583 65.791h-29.24v-45.305c0-14.042 4.358-27.471 12.605-38.838 2.822-3.89 5.333-8.044 7.464-12.346 10.851-21.906-5.771-48.223-30.071-48.223-24.286.009-40.881 26.323-30.051 48.21 2.122 4.288 4.618 8.425 7.42 12.296.017.023.033.046.05.07 8.231 11.359 12.583 24.778 12.583 38.807v45.328h-29.165c-1.847-23.038-11.184-43.629-24.963-61.982-10.393-13.832-16.044-30.814-16.044-48.116-.001-44.21 35.967-80.178 80.177-80.178zm-99.813 88.84c1.77 20.83 10.377 38.264 22.175 55.091 12.085 17.23 18.827 35.133 18.827 56.344v32.583c0 27.006 21.963 50.827 48.822 53.269v117.93c-19.158-9.949-40.662-15.208-62.25-15.208h-116.615l-.005-300.01h89.046zm-136.187 349.694v-325.628h27.141v285.944c0 5.454 4.555 10.009 10.005 10.009h126.612c21.965 0 43.772 6.417 62.243 18.299v11.376z"/><path d="m373.8 189.966h31.79c5.523 0 10-4.477 10-10s-4.477-10-10-10h-31.79c-5.523 0-10 4.477-10 10s4.477 10 10 10z"/><path d="m405.59 234.719h-58.498c-5.523 0-10 4.477-10 10s4.477 10 10 10h58.498c5.523 0 10-4.477 10-10s-4.477-10-10-10z"/><path d="m405.59 299.472h-66.58c-5.523 0-10 4.477-10 10s4.477 10 10 10h66.581c5.523 0 10-4.477 10-10s-4.478-10-10.001-10z"/><path d="m108.882 189.966h31.791c5.523 0 10-4.477 10-10s-4.477-10-10-10h-31.791c-5.523 0-10 4.477-10 10s4.477 10 10 10z"/><path d="m108.882 254.719h58.498c5.523 0 10-4.477 10-10s-4.477-10-10-10h-58.498c-5.523 0-10 4.477-10 10s4.477 10 10 10z"/><path d="m108.882 319.472h65.581c5.523 0 10-4.477 10-10s-4.477-10-10-10h-65.581c-5.523 0-10 4.477-10 10s4.477 10 10 10z"/><path d="m405.59 364.225h-93.58c-5.523 0-10 4.477-10 10s4.477 10 10 10h93.581c5.523 0 10-4.477 10-10s-4.478-10-10.001-10z"/><path d="m108.882 384.225h93.581c5.523 0 10-4.477 10-10s-4.477-10-10-10h-93.581c-5.523 0-10 4.477-10 10s4.477 10 10 10z"/><path d="m393.13 481.44c-3.445-8.268-15.638-7.966-18.646.461-3.061 8.573 6.441 16.494 14.334 12.06 4.36-2.449 6.201-7.912 4.312-12.521z"/></g></g></svg>