<?xml version="1.0" encoding="iso-8859-1"?>
<!-- Generator: Adobe Illustrator 19.0.0, SVG Export Plug-In . SVG Version: 6.00 Build 0)  -->
<svg version="1.1" id="Capa_1" xmlns="http://www.w3.org/2000/svg" xmlns:xlink="http://www.w3.org/1999/xlink" x="0px" y="0px"
	 viewBox="0 0 480.012 480.012" style="enable-background:new 0 0 480.012 480.012;" xml:space="preserve">
<g>
	<g>
		<path d="M479.166,468.43l-39.16-78.312v-54.112c0-11.52-4.968-21.832-12.784-29.136c12.328-6.824,20.784-19.808,20.784-34.864
			c0-22.056-17.944-40-40-40c-22.056,0-40,17.944-40,40c0,9.04,3.128,17.296,8.208,24h-16.208c-4.416,0-8-3.592-8-8v-24v-64
			c0-4.416-3.576-8-8-8h-24.808c-3.72-18.232-19.872-32-39.192-32h-32v-40.408c27.248-1.936,51.824-13.584,70.232-31.592h9.768
			c30.872,0,56-25.12,56-56c0-4.416-3.576-8-8-8h-25.28c0.76-5.24,1.28-10.552,1.28-16c0-4.416-3.576-8-8-8h-208
			c-4.424,0-8,3.584-8,8c0,5.448,0.52,10.76,1.28,16h-25.28c-4.424,0-8,3.584-8,8c0,30.88,25.128,56,56,56h9.768
			c18.416,18.008,42.992,29.656,70.232,31.592v40.408h-32c-19.312,0-35.472,13.768-39.192,32h-24.808c-4.424,0-8,3.584-8,8v64v24
			c0,4.408-3.584,8-8,8h-16.208c5.08-6.704,8.208-14.96,8.208-24c0-22.056-17.944-40-40-40c-22.056,0-40,17.944-40,40
			c0,15.056,8.456,28.04,20.784,34.864c-7.816,7.304-12.784,17.616-12.784,29.136v54.112L0.846,468.43
			c-1.24,2.48-1.112,5.424,0.352,7.784c1.464,2.352,4.032,3.792,6.808,3.792h32c3.032,0,5.8-1.712,7.16-4.424l23.152-46.296
			l9.88,44.456c0.816,3.656,4.056,6.264,7.808,6.264h32c2.4,0,4.664-1.072,6.184-2.928c1.512-1.848,2.128-4.288,1.656-6.64
			l-15.84-79.224v-47.208h8c19.496,0,37.4-10.2,47.512-26.48c5.216,1.608,10.752,2.48,16.488,2.48h8v47.088l-23.8,103.112
			c-0.544,2.376,0.016,4.872,1.536,6.784c1.52,1.904,3.824,3.016,6.264,3.016h40c3.672,0,6.864-2.496,7.76-6.056l16.24-64.96
			l16.24,64.96c0.896,3.56,4.088,6.056,7.76,6.056h40c2.44,0,4.744-1.112,6.256-3.016c1.52-1.904,2.088-4.4,1.536-6.784
			l-23.792-103.112v-47.088h8c5.736,0,11.272-0.872,16.488-2.48c10.112,16.28,28.016,26.48,47.512,26.48h8v47.208l-15.84,79.224
			c-0.472,2.352,0.144,4.792,1.656,6.64c1.52,1.856,3.784,2.928,6.184,2.928h32c3.752,0,6.992-2.608,7.816-6.264l9.88-44.456
			l23.152,46.296c1.352,2.712,4.12,4.424,7.152,4.424h32c2.776,0,5.344-1.44,6.808-3.792
			C480.278,473.854,480.406,470.91,479.166,468.43z M408.006,248.006c13.232,0,24,10.768,24,24s-10.768,24-24,24s-24-10.768-24-24
			S394.774,248.006,408.006,248.006z M275.686,208.006h28.32v56c0,4.408-3.584,8-8,8h-20.32c7.632-8.504,12.32-19.696,12.32-32
			S283.318,216.51,275.686,208.006z M340.118,57.926c0.456-0.92,0.904-1.84,1.336-2.776c0.96-2.056,1.872-4.12,2.704-6.24
			c0.248-0.624,0.464-1.264,0.696-1.896c0.864-2.312,1.72-4.624,2.432-7.008h19.912c-3.464,16.976-17.704,30.08-35.24,31.808
			c0.048-0.072,0.096-0.152,0.144-0.232c1.104-1.592,2.104-3.256,3.12-4.904c0.656-1.064,1.328-2.112,1.944-3.192
			C338.206,61.67,339.174,59.806,340.118,57.926z M112.814,40.006h19.912c0.712,2.384,1.568,4.696,2.432,7.008
			c0.232,0.632,0.448,1.272,0.696,1.896c0.832,2.12,1.744,4.184,2.704,6.24c0.432,0.936,0.88,1.856,1.336,2.776
			c0.944,1.88,1.904,3.736,2.952,5.56c0.616,1.08,1.288,2.128,1.944,3.192c1.024,1.648,2.024,3.312,3.12,4.904
			c0.048,0.072,0.096,0.152,0.144,0.232C130.51,70.086,116.27,56.982,112.814,40.006z M170.366,73.91
			c-5.568-5.888-10.352-12.424-14.248-19.464c-0.184-0.328-0.368-0.648-0.544-0.976c-3.912-7.272-6.912-15.04-8.84-23.128
			c-1.12-4.672-1.992-9.432-2.4-14.336h191.344c-0.408,4.904-1.28,9.672-2.4,14.336c-1.936,8.088-4.928,15.856-8.84,23.128
			c-0.176,0.328-0.36,0.656-0.544,0.976c-3.896,7.032-8.68,13.576-14.248,19.464c-17.512,18.488-42.224,30.096-69.64,30.096
			C212.59,104.006,187.878,92.398,170.366,73.91z M200.006,176.006h80c10.432,0,19.328,6.688,22.632,16H177.374
			C180.678,182.694,189.574,176.006,200.006,176.006z M272.006,240.006c0,17.648-14.352,32-32,32s-32-14.352-32-32s14.352-32,32-32
			S272.006,222.358,272.006,240.006z M176.006,208.006h28.32c-7.632,8.504-12.32,19.696-12.32,32s4.688,23.496,12.32,32h-20.32
			c-4.416,0-8-3.592-8-8V208.006z M48.006,272.006c0-13.232,10.768-24,24-24s24,10.768,24,24s-10.768,24-24,24
			S48.006,285.238,48.006,272.006z M35.062,464.006H20.95l31.112-62.208l8.92,2.976l3.176,1.056L35.062,464.006z M120.006,328.006
			h-16c-4.424,0-8,3.584-8,8v56c0,0.528,0.056,1.048,0.16,1.568l14.08,70.432H94.414l-14.6-65.728
			c-0.608-2.744-2.616-4.968-5.28-5.856l-18.528-6.184v-50.232c0-13.232,10.768-24,24-24h40c8.976,0,16.808-4.952,20.928-12.264
			c1.624,1.952,3.408,3.752,5.28,5.464c0.232,0.216,0.456,0.424,0.696,0.632c1.928,1.712,3.936,3.32,6.08,4.752
			C145.614,321.358,133.318,328.006,120.006,328.006z M323.278,293.094c-1.12,1.048-2.32,2.016-3.552,2.936
			c-0.592,0.44-1.144,0.936-1.768,1.344c-6.312,4.176-13.84,6.632-21.952,6.632h-16c-4.424,0-8,3.584-8,8v56
			c0,0.608,0.072,1.208,0.2,1.8l21.744,94.2h-23.696l-22.488-89.944c-0.896-3.56-4.088-6.056-7.76-6.056s-6.864,2.496-7.76,6.056
			l-22.488,89.944h-23.696l21.744-94.2c0.128-0.592,0.2-1.192,0.2-1.8v-56c0-4.416-3.576-8-8-8h-16
			c-8.112,0-15.64-2.456-21.952-6.624c-0.624-0.408-1.168-0.904-1.768-1.344c-1.232-0.92-2.432-1.88-3.552-2.936
			c-0.68-0.64-1.328-1.304-1.96-1.984c-0.968-1.048-1.872-2.152-2.728-3.296c-0.512-0.688-1.072-1.352-1.536-2.072
			c-1.152-1.768-2.16-3.624-3.024-5.568c-0.32-0.72-0.552-1.48-0.832-2.216c-0.56-1.496-1.048-3.024-1.432-4.6
			c-0.184-0.752-0.36-1.512-0.504-2.28c-0.408-2.312-0.712-4.656-0.712-7.08v-56h16v56c0,13.232,10.768,24,24,24h112
			c13.232,0,24-10.768,24-24v-56h16v56c0,2.424-0.304,4.768-0.712,7.072c-0.144,0.768-0.32,1.52-0.504,2.28
			c-0.384,1.576-0.872,3.104-1.432,4.6c-0.28,0.736-0.512,1.496-0.832,2.216c-0.864,1.944-1.88,3.8-3.024,5.568
			c-0.472,0.72-1.024,1.384-1.536,2.072c-0.856,1.144-1.752,2.256-2.728,3.296C324.606,291.79,323.958,292.462,323.278,293.094z
			 M405.478,392.422c-0.936,0.312-1.752,0.84-2.496,1.448c-1.368,1.12-2.392,2.632-2.792,4.408l-14.6,65.728h-15.824l14.088-70.432
			c0.096-0.52,0.152-1.04,0.152-1.568v-56c0-4.416-3.576-8-8-8h-16c-13.312,0-25.608-6.648-32.984-17.416
			c2.144-1.432,4.16-3.048,6.08-4.752c0.232-0.208,0.464-0.416,0.696-0.632c1.864-1.712,3.656-3.512,5.28-5.464
			c4.12,7.312,11.952,12.264,20.928,12.264h40c13.232,0,24,10.768,24,24v50.24L405.478,392.422z M444.95,464.006l-29.096-58.176
			l3.176-1.056l8.92-2.976l31.112,62.208H444.95z"/>
	</g>
</g>
<g>
	<g>
		<path d="M280.174,57.79c-11.336,9.168-25.6,14.216-40.168,14.216v16c18.216,0,36.056-6.312,50.232-17.776L280.174,57.79z"/>
	</g>
</g>
<g>
	<g>
		<path d="M297.334,36.438c-2.552,5.136-5.808,9.92-9.664,14.216l11.904,10.688c4.824-5.36,8.888-11.344,12.088-17.776
			L297.334,36.438z"/>
	</g>
</g>
<g>
</g>
<g>
</g>
<g>
</g>
<g>
</g>
<g>
</g>
<g>
</g>
<g>
</g>
<g>
</g>
<g>
</g>
<g>
</g>
<g>
</g>
<g>
</g>
<g>
</g>
<g>
</g>
<g>
</g>
</svg>
